<mxfile host="app.diagrams.net" modified="2023-05-04T16:05:45.562Z" agent="Mozilla/5.0 (X11; Linux x86_64; rv:109.0) Gecko/20100101 Firefox/112.0" etag="bPao7EhY3l04WLTdzuiw" version="21.2.7" type="device">
  <diagram name="Page-1" id="HJx1RVp9cAAFZep9y7e6">
    <mxGraphModel dx="1015" dy="479" grid="1" gridSize="10" guides="1" tooltips="1" connect="1" arrows="1" fold="1" page="1" pageScale="1" pageWidth="850" pageHeight="1100" math="0" shadow="0">
      <root>
        <mxCell id="0" />
        <mxCell id="1" parent="0" />
        <mxCell id="dp9WcR8pO4NLxSLczPQ1-5" value="&lt;div align=&quot;center&quot;&gt;&amp;lt;&amp;lt;device&amp;gt;&amp;gt;&lt;/div&gt;&lt;div&gt;&lt;br&gt;&lt;/div&gt;&lt;div&gt;Client device&lt;/div&gt;" style="verticalAlign=top;align=center;spacingTop=8;spacingLeft=2;spacingRight=12;shape=cube;size=10;direction=south;fontStyle=4;html=1;whiteSpace=wrap;" vertex="1" parent="1">
          <mxGeometry x="40" y="120" width="200" height="370" as="geometry" />
        </mxCell>
        <mxCell id="dp9WcR8pO4NLxSLczPQ1-6" value="&lt;div align=&quot;center&quot;&gt;&amp;lt;&amp;lt;execution enviroment&amp;gt;&amp;gt;&lt;/div&gt;&lt;div align=&quot;center&quot;&gt;Any OS&lt;br&gt;&lt;/div&gt;" style="verticalAlign=top;align=left;spacingTop=8;spacingLeft=2;spacingRight=12;shape=cube;size=10;direction=south;fontStyle=4;html=1;whiteSpace=wrap;" vertex="1" parent="1">
          <mxGeometry x="50" y="280" width="170" height="140" as="geometry" />
        </mxCell>
        <mxCell id="dp9WcR8pO4NLxSLczPQ1-7" value="Web Browser" style="shape=module;align=left;spacingLeft=20;align=center;verticalAlign=top;whiteSpace=wrap;html=1;" vertex="1" parent="1">
          <mxGeometry x="70" y="350" width="100" height="50" as="geometry" />
        </mxCell>
        <mxCell id="dp9WcR8pO4NLxSLczPQ1-8" value="&lt;div&gt;&amp;lt;&amp;lt;device&amp;gt;&amp;gt;&lt;/div&gt;&lt;div&gt;Hardware machine 1&lt;br&gt;&lt;/div&gt;" style="verticalAlign=top;align=left;spacingTop=8;spacingLeft=2;spacingRight=12;shape=cube;size=10;direction=south;fontStyle=4;html=1;whiteSpace=wrap;" vertex="1" parent="1">
          <mxGeometry x="370" y="60" width="340" height="940" as="geometry" />
        </mxCell>
        <mxCell id="dp9WcR8pO4NLxSLczPQ1-9" value="&lt;div&gt;&amp;lt;&amp;lt;execution enviroment&amp;gt;&amp;gt;&lt;/div&gt;&lt;div&gt;Linux OS&lt;br&gt;&lt;/div&gt;" style="verticalAlign=top;align=left;spacingTop=8;spacingLeft=2;spacingRight=12;shape=cube;size=10;direction=south;fontStyle=4;html=1;whiteSpace=wrap;" vertex="1" parent="1">
          <mxGeometry x="390" y="130" width="290" height="790" as="geometry" />
        </mxCell>
        <mxCell id="dp9WcR8pO4NLxSLczPQ1-10" value="&lt;div&gt;&amp;lt;&amp;lt;execution environment&amp;gt;&amp;gt;&lt;/div&gt;&lt;div&gt;HTTP Server&lt;/div&gt;" style="verticalAlign=top;align=left;spacingTop=8;spacingLeft=2;spacingRight=12;shape=cube;size=10;direction=south;fontStyle=4;html=1;whiteSpace=wrap;" vertex="1" parent="1">
          <mxGeometry x="415" y="190" width="240" height="80" as="geometry" />
        </mxCell>
        <mxCell id="dp9WcR8pO4NLxSLczPQ1-11" value="&lt;div align=&quot;center&quot;&gt;&amp;lt;&amp;lt;execution enviroment&amp;gt;&amp;gt;&lt;/div&gt;&lt;div align=&quot;center&quot;&gt;WebLogic Server&lt;br&gt;&lt;/div&gt;" style="verticalAlign=top;align=left;spacingTop=8;spacingLeft=2;spacingRight=12;shape=cube;size=10;direction=south;fontStyle=4;html=1;whiteSpace=wrap;" vertex="1" parent="1">
          <mxGeometry x="410" y="340" width="250" height="170" as="geometry" />
        </mxCell>
        <mxCell id="dp9WcR8pO4NLxSLczPQ1-12" value="&lt;div&gt;&amp;lt;&amp;lt;artifact&amp;gt;&amp;gt;&lt;/div&gt;&lt;div&gt;+page.server.svelte&lt;br&gt;&lt;/div&gt;" style="rounded=0;whiteSpace=wrap;html=1;" vertex="1" parent="1">
          <mxGeometry x="440" y="410" width="170" height="80" as="geometry" />
        </mxCell>
        <mxCell id="dp9WcR8pO4NLxSLczPQ1-13" value="" style="whiteSpace=wrap;html=1;shape=mxgraph.basic.document" vertex="1" parent="1">
          <mxGeometry x="580" y="420" width="20" height="30" as="geometry" />
        </mxCell>
        <mxCell id="dp9WcR8pO4NLxSLczPQ1-15" value="&lt;div align=&quot;center&quot;&gt;&amp;lt;&amp;lt;execution environment&amp;gt;&amp;gt;&lt;br&gt;MySql Database&lt;br&gt;&lt;/div&gt;" style="verticalAlign=top;align=center;spacingTop=8;spacingLeft=2;spacingRight=12;shape=cube;size=10;direction=south;fontStyle=4;html=1;whiteSpace=wrap;" vertex="1" parent="1">
          <mxGeometry x="415" y="640" width="225" height="230" as="geometry" />
        </mxCell>
        <mxCell id="dp9WcR8pO4NLxSLczPQ1-17" value="" style="whiteSpace=wrap;html=1;aspect=fixed;" vertex="1" parent="1">
          <mxGeometry x="400" y="730" width="25" height="25" as="geometry" />
        </mxCell>
        <mxCell id="dp9WcR8pO4NLxSLczPQ1-19" value="" style="endArrow=block;dashed=1;endFill=0;endSize=12;html=1;rounded=0;entryX=0;entryY=0.5;entryDx=0;entryDy=0;" edge="1" parent="1" target="dp9WcR8pO4NLxSLczPQ1-17">
          <mxGeometry width="160" relative="1" as="geometry">
            <mxPoint x="510" y="510" as="sourcePoint" />
            <mxPoint x="670" y="510" as="targetPoint" />
          </mxGeometry>
        </mxCell>
        <mxCell id="dp9WcR8pO4NLxSLczPQ1-20" value="" style="whiteSpace=wrap;html=1;aspect=fixed;" vertex="1" parent="1">
          <mxGeometry x="410" y="240" width="20" height="20" as="geometry" />
        </mxCell>
        <mxCell id="dp9WcR8pO4NLxSLczPQ1-21" value="" style="endArrow=block;dashed=1;endFill=0;endSize=12;html=1;rounded=0;entryX=0;entryY=0.5;entryDx=0;entryDy=0;" edge="1" parent="1" target="dp9WcR8pO4NLxSLczPQ1-20">
          <mxGeometry width="160" relative="1" as="geometry">
            <mxPoint x="170" y="370" as="sourcePoint" />
            <mxPoint x="330" y="370" as="targetPoint" />
          </mxGeometry>
        </mxCell>
        <mxCell id="dp9WcR8pO4NLxSLczPQ1-22" value="" style="line;strokeWidth=1;fillColor=none;align=left;verticalAlign=middle;spacingTop=-1;spacingLeft=3;spacingRight=3;rotatable=0;labelPosition=right;points=[];portConstraint=eastwest;strokeColor=inherit;" vertex="1" parent="1">
          <mxGeometry x="240" y="350" width="130" height="8" as="geometry" />
        </mxCell>
        <mxCell id="dp9WcR8pO4NLxSLczPQ1-23" value="HTTP Request" style="text;align=center;fontStyle=1;verticalAlign=middle;spacingLeft=3;spacingRight=3;strokeColor=none;rotatable=0;points=[[0,0.5],[1,0.5]];portConstraint=eastwest;html=1;" vertex="1" parent="1">
          <mxGeometry x="250" y="270" width="80" height="26" as="geometry" />
        </mxCell>
        <mxCell id="dp9WcR8pO4NLxSLczPQ1-24" value="Data Request" style="text;align=center;fontStyle=1;verticalAlign=middle;spacingLeft=3;spacingRight=3;strokeColor=none;rotatable=0;points=[[0,0.5],[1,0.5]];portConstraint=eastwest;html=1;" vertex="1" parent="1">
          <mxGeometry x="485" y="570" width="80" height="26" as="geometry" />
        </mxCell>
        <mxCell id="dp9WcR8pO4NLxSLczPQ1-25" value="3306" style="text;whiteSpace=wrap;html=1;" vertex="1" parent="1">
          <mxGeometry x="430" y="730" width="30" height="20" as="geometry" />
        </mxCell>
        <mxCell id="dp9WcR8pO4NLxSLczPQ1-26" value="8080" style="text;align=center;fontStyle=1;verticalAlign=middle;spacingLeft=3;spacingRight=3;strokeColor=none;rotatable=0;points=[[0,0.5],[1,0.5]];portConstraint=eastwest;html=1;" vertex="1" parent="1">
          <mxGeometry x="410" y="240" width="80" height="26" as="geometry" />
        </mxCell>
      </root>
    </mxGraphModel>
  </diagram>
</mxfile>
